<?xml version="1.0" encoding="utf-8"?>
<!-- Generator: Adobe Illustrator 23.0.5, SVG Export Plug-In . SVG Version: 6.00 Build 0)  -->
<svg version="1.1" id="Capa_1" xmlns="http://www.w3.org/2000/svg" xmlns:xlink="http://www.w3.org/1999/xlink" x="0px" y="0px"
	 viewBox="0 0 191 208" style="enable-background:new 0 0 191 208;" xml:space="preserve">
<style type="text/css">
	.st0{fill:#B60121;}
</style>
<g>
	<g>
		<path class="st0" d="M65.48,41.47h20.17v135.41h-29.2V71.44L33.02,77.2L26.87,53L65.48,41.47z"/>
	</g>
	<g>
		<path class="st0" d="M115.34,70.29c-8.44,0-14.12-6.6-14.12-14.87c0-8.35,5.76-15.04,14.28-15.04c8.44,0,14.12,6.6,14.12,14.87
			C129.63,63.6,123.86,70.29,115.34,70.29z M117.01,99.52h-9.94l42.69-58.48h9.94L117.01,99.52z M115.34,47.98
			c-3.51,0-5.35,3.34-5.35,7.27c0,4.01,2.17,7.44,5.51,7.44c3.51,0,5.35-3.34,5.35-7.27C120.86,51.4,118.68,47.98,115.34,47.98z
			 M151.26,100.19c-8.44,0-14.12-6.6-14.12-14.87c0-8.35,5.76-15.04,14.29-15.04c8.44,0,14.12,6.6,14.12,14.87
			C165.55,93.51,159.79,100.19,151.26,100.19z M151.26,77.89c-3.51,0-5.35,3.34-5.35,7.27c0,4.01,2.17,7.44,5.51,7.44
			c3.51,0,5.35-3.34,5.35-7.27C156.78,81.31,154.61,77.89,151.26,77.89z"/>
	</g>
</g>
</svg>
