<?xml version="1.0" encoding="utf-8"?>
<!-- Generator: Adobe Illustrator 23.0.5, SVG Export Plug-In . SVG Version: 6.00 Build 0)  -->
<svg version="1.1" id="Capa_1" xmlns="http://www.w3.org/2000/svg" xmlns:xlink="http://www.w3.org/1999/xlink" x="0px" y="0px"
	 viewBox="0 0 98.4 96.5" style="enable-background:new 0 0 98.4 96.5;" xml:space="preserve">
<style type="text/css">
	.st0{fill-rule:evenodd;clip-rule:evenodd;fill:url(#SVGID_1_);}
	.st1{opacity:0.4;}
	.st2{fill-rule:evenodd;clip-rule:evenodd;fill:url(#SVGID_2_);}
	.st3{opacity:0.6;}
	.st4{fill-rule:evenodd;clip-rule:evenodd;fill:url(#SVGID_3_);}
	.st5{fill-rule:evenodd;clip-rule:evenodd;fill:url(#SVGID_4_);}
	.st6{fill:url(#SVGID_5_);}
	.st7{fill:url(#SVGID_6_);}
	.st8{fill:url(#SVGID_7_);}
	.st9{fill:url(#SVGID_8_);}
</style>
<g>
	
		<image style="overflow:visible;opacity:0.75;enable-background:new    ;" width="413" height="417" xlink:href="72249D53.png"  transform="matrix(0.236 0 0 0.236 2.4925 -2.530000e-02)">
	</image>
	<g>
		<g>
			<g>
				<g>
					<g>
						
							<linearGradient id="SVGID_1_" gradientUnits="userSpaceOnUse" x1="49.19" y1="94.8462" x2="49.19" y2="2.3688" gradientTransform="matrix(1 0 0 -1 0 98)">
							<stop  offset="0" style="stop-color:#E6E6E6"/>
							<stop  offset="1" style="stop-color:#FFFFFF"/>
						</linearGradient>
						<path class="st0" d="M95,42.8c0.4,3.6,0.4,7.3,0,10.9C92.5,74.8,75.8,91.5,54.7,94c-3.6,0.4-7.3,0.4-10.9,0
							C22.6,91.5,5.9,74.8,3.4,53.7C3,50.1,3,46.4,3.4,42.8C5.9,21.6,22.6,5,43.7,2.4C47.3,2,51,2,54.7,2.4
							C75.8,5,92.4,21.6,95,42.8z"/>
						<g class="st1">
							
								<linearGradient id="SVGID_2_" gradientUnits="userSpaceOnUse" x1="49.195" y1="93.0615" x2="49.195" y2="4.2458" gradientTransform="matrix(1 0 0 -1 0 98)">
								<stop  offset="0" style="stop-color:#F2F2F2"/>
								<stop  offset="1" style="stop-color:#242424"/>
							</linearGradient>
							<path class="st2" d="M93.2,43c0.4,3.5,0.4,7,0,10.5c-2.4,20.3-18.4,36.3-38.7,38.7c-3.5,0.4-7,0.4-10.5,0
								C23.6,89.8,7.6,73.8,5.2,53.5c-0.4-3.5-0.4-7,0-10.5C7.6,22.7,23.6,6.7,43.9,4.3c3.5-0.4,7-0.4,10.5,0
								C74.7,6.7,90.7,22.7,93.2,43z"/>
						</g>
						<g class="st3">
							
								<linearGradient id="SVGID_3_" gradientUnits="userSpaceOnUse" x1="49.185" y1="93.0615" x2="49.185" y2="4.2458" gradientTransform="matrix(1 0 0 -1 0 98)">
								<stop  offset="0" style="stop-color:#BFBFBF"/>
								<stop  offset="1" style="stop-color:#FFFFFF"/>
							</linearGradient>
							<path class="st4" d="M54.4,4.3c-3.5-0.4-7-0.4-10.5,0C23.6,6.7,7.6,22.7,5.2,43c-0.4,3.5-0.4,7,0,10.5
								c2.4,20.3,18.4,36.3,38.7,38.7c3.5,0.4,7,0.4,10.5,0c20.3-2.4,36.3-18.4,38.7-38.7c0.4-3.5,0.4-7,0-10.5
								C90.7,22.7,74.7,6.7,54.4,4.3z M90.6,43.3c0.4,3.3,0.4,6.6,0,9.9c-2.3,19.1-17.3,34.1-36.4,36.4c-3.3,0.4-6.6,0.4-9.9,0
								C25.2,87.3,10.1,72.3,7.8,53.2c-0.4-3.3-0.4-6.6,0-9.9C10.1,24.2,25.2,9.1,44.3,6.9c3.3-0.4,6.6-0.4,9.9,0
								C73.2,9.1,88.3,24.2,90.6,43.3z"/>
						</g>
						
							<linearGradient id="SVGID_4_" gradientUnits="userSpaceOnUse" x1="49.1875" y1="-40.7238" x2="49.1875" y2="121.7521" gradientTransform="matrix(1 0 0 -1 0 98)">
							<stop  offset="0" style="stop-color:#EFEFEF"/>
							<stop  offset="0.4907" style="stop-color:#F1F1F1"/>
							<stop  offset="1" style="stop-color:#F6F6F6"/>
						</linearGradient>
						<path class="st5" d="M89.3,48.7c0-20.3-15.2-37.4-35.4-39.8c-3.2-0.4-6.4-0.4-9.5,0C26,11.1,11.5,25.6,9.3,43.9
							c-0.4,3.2-0.4,6.4,0,9.5c2.4,20.2,19.5,35.4,39.8,35.4C71.3,88.8,89.3,70.9,89.3,48.7z"/>
					</g>
				</g>
				<g>
					<g>
						
							<linearGradient id="SVGID_5_" gradientUnits="userSpaceOnUse" x1="39.1372" y1="29.8683" x2="56.3749" y2="59.7248" gradientTransform="matrix(1 0 0 -1 0 98)">
							<stop  offset="0" style="stop-color:#AB1F25"/>
							<stop  offset="0.5133" style="stop-color:#AA1E25"/>
							<stop  offset="0.6982" style="stop-color:#A41E25"/>
							<stop  offset="0.8299" style="stop-color:#9B1D24"/>
							<stop  offset="0.9357" style="stop-color:#8D1B24"/>
							<stop  offset="1" style="stop-color:#811923"/>
						</linearGradient>
						<path class="st6" d="M72.1,71.7l-3.9,2.4c-0.2,0.2-3.2,2.3-8.4,2.3c-5.7,0-13.9-2.5-24.1-12.6l-0.2-0.2
							C16,44,24.7,31.5,25.1,31l2.3-3.8c0,0,0,0,0-0.1c1-1.3,2.4-2,4-2.2c1.6-0.1,3.1,0.5,4.2,1.6l4.6,4.6c1.9,1.9,2.1,4.9,0.5,7.1
							l-3.1,4.8l0,0c0,0-1.1,3.1,7.1,11.4c8.3,8.3,11.4,7.1,11.4,7l4.8-3.1c2.1-1.6,5.1-1.4,7,0.5l4.6,4.6c1.1,1.1,1.7,2.6,1.6,4.2
							C74.1,69.3,73.3,70.8,72.1,71.7z"/>
					</g>
					<g>
						
							<linearGradient id="SVGID_6_" gradientUnits="userSpaceOnUse" x1="55.348" y1="52.6151" x2="60.8338" y2="62.1166" gradientTransform="matrix(1 0 0 -1 0 98)">
							<stop  offset="0" style="stop-color:#AB1F25"/>
							<stop  offset="0.5133" style="stop-color:#AA1E25"/>
							<stop  offset="0.6982" style="stop-color:#A41E25"/>
							<stop  offset="0.8299" style="stop-color:#9B1D24"/>
							<stop  offset="0.9357" style="stop-color:#8D1B24"/>
							<stop  offset="1" style="stop-color:#811923"/>
						</linearGradient>
						<path class="st7" d="M61.2,38.4c-2.4-2.4-6.7-2.4-9.1,0c-0.3,0.3-0.9,0.3-1.3,0s-0.3-0.9,0-1.3c3.1-3.1,8.5-3.1,11.6,0
							c3.2,3.2,3.2,8.4,0,11.6C62.3,48.9,62,49,61.8,49s-0.5-0.1-0.6-0.3c-0.3-0.3-0.3-0.9,0-1.3C63.7,45,63.7,40.9,61.2,38.4z"/>
					</g>
					<g>
						
							<linearGradient id="SVGID_7_" gradientUnits="userSpaceOnUse" x1="54.8098" y1="51.5295" x2="63.2361" y2="66.1244" gradientTransform="matrix(1 0 0 -1 0 98)">
							<stop  offset="0" style="stop-color:#AB1F25"/>
							<stop  offset="0.5133" style="stop-color:#AA1E25"/>
							<stop  offset="0.6982" style="stop-color:#A41E25"/>
							<stop  offset="0.8299" style="stop-color:#9B1D24"/>
							<stop  offset="0.9357" style="stop-color:#8D1B24"/>
							<stop  offset="1" style="stop-color:#811923"/>
						</linearGradient>
						<path class="st8" d="M64.5,50.8c4.3-4.3,4.3-11.4,0-15.7c-2.1-2.1-4.9-3.3-7.8-3.3s-5.8,1.2-7.8,3.3c-0.3,0.3-0.9,0.3-1.3,0
							s-0.3-0.9,0-1.3c5-5,13.2-5,18.2,0c5,5,5,13.2,0,18.2c-0.2,0.2-0.4,0.3-0.6,0.3c-0.2,0-0.4-0.1-0.6-0.3
							C64.1,51.7,64.1,51.1,64.5,50.8z"/>
					</g>
					<g>
						
							<linearGradient id="SVGID_8_" gradientUnits="userSpaceOnUse" x1="54.2688" y1="50.4219" x2="65.684" y2="70.1934" gradientTransform="matrix(1 0 0 -1 0 98)">
							<stop  offset="0" style="stop-color:#AB1F25"/>
							<stop  offset="0.5133" style="stop-color:#AA1E25"/>
							<stop  offset="0.6982" style="stop-color:#A41E25"/>
							<stop  offset="0.8299" style="stop-color:#9B1D24"/>
							<stop  offset="0.9357" style="stop-color:#8D1B24"/>
							<stop  offset="1" style="stop-color:#811923"/>
						</linearGradient>
						<path class="st9" d="M69.1,55.4c-0.2,0.2-0.4,0.3-0.6,0.3c-0.2,0-0.4-0.1-0.6-0.3c-0.3-0.3-0.3-0.9,0-1.3
							c6.2-6.2,6.2-16.2,0-22.4c-3-3-7-4.6-11.2-4.6s-8.2,1.6-11.2,4.6c-0.3,0.3-0.9,0.3-1.3,0c-0.3-0.4-0.3-0.9,0-1.3
							c3.3-3.3,7.7-5.2,12.5-5.2c4.7,0,9.1,1.8,12.4,5.2C75.9,37.3,75.9,48.5,69.1,55.4z"/>
					</g>
				</g>
			</g>
		</g>
	</g>
</g>
</svg>
